HIERARCHY
ROOT Hips
{
	OFFSET 0.000000 0.000000 0.000000
	CHANNELS 6 Xposition Yposition Zposition Zrotation Yrotation Xrotation 
	JOINT LHipJoint
	{
		OFFSET 0.000000 0.000000 0.000000
		CHANNELS 3 Zrotation Yrotation Xrotation
		JOINT LeftUpLeg
		{
			OFFSET 1.363060 -1.794630 0.839290
			CHANNELS 3 Zrotation Yrotation Xrotation
			JOINT LeftLeg
			{
				OFFSET 2.448110 -6.726130 0.000000
				CHANNELS 3 Zrotation Yrotation Xrotation
				JOINT LeftFoot
				{
					OFFSET 2.562200 -7.039590 0.000000
					CHANNELS 3 Zrotation Yrotation Xrotation
					JOINT LeftToeBase
					{
						OFFSET 0.157640 -0.433110 2.322550
						CHANNELS 3 Zrotation Yrotation Xrotation
						End Site
						{
							OFFSET 0.000000 0.000000 0.000000
						}
					}
				}
			}
		}
	}
	JOINT RHipJoint
	{
		OFFSET 0.000000 0.000000 0.000000
		CHANNELS 3 Zrotation Yrotation Xrotation
		JOINT RightUpLeg
		{
			OFFSET -1.305520 -1.794630 0.839290
			CHANNELS 3 Zrotation Yrotation Xrotation
			JOINT RightLeg
			{
				OFFSET -2.542530 -6.985550 0.000000
				CHANNELS 3 Zrotation Yrotation Xrotation
				JOINT RightFoot
				{
					OFFSET -2.568260 -7.056230 0.000000
					CHANNELS 3 Zrotation Yrotation Xrotation
					JOINT RightToeBase
					{
						OFFSET -0.164730 -0.452590 2.363150
						CHANNELS 3 Zrotation Yrotation Xrotation
						End Site
						{
							OFFSET 0.000000 0.000000 0.000000
						}
					}
				}
			}
		}
	}
}
MOTION
Frames: 33
Frame Time: 0.008333
-2.218834 17.221148 0.292728 12.143787 -79.463576 -3.550642 -9.342298 1.546953 3.843099 -11.523167 -11.597508 -13.359299 -2.044560 -0.217524 12.774174 1.289955 7.128021 -6.643208 0.179399 0.000000 -34.335800 10.942405 0.628003 -1.210917 5.478932 -7.509727 -38.501423 -1.514486 -3.836062 62.734571 -1.724601 -5.397958 20.032249 -1.958100 0.000000 -83.692000
-2.190452 17.216885 0.328662 10.885892 -79.016463 -2.469045 -9.415324 1.456963 3.666101 -11.481275 -11.403304 -13.159824 -2.054130 -0.200863 12.862519 1.217788 6.675506 -6.661495 0.156200 0.000000 -34.516200 10.921227 0.960894 -1.300682 5.208924 -7.548035 -41.110048 -1.688425 -4.008913 66.388652 -1.783599 -3.796446 24.692777 -1.304600 0.000001 -82.626699
-2.159867 17.213915 0.363952 9.484614 -78.596109 -1.274062 -9.493331 1.358819 3.483656 -11.378889 -11.257816 -12.929627 -2.050009 -0.178943 12.979847 1.159947 6.307835 -6.696864 0.134400 0.000000 -34.642800 10.868499 1.292695 -1.412965 5.004702 -7.589485 -43.700571 -1.811841 -4.196095 69.885102 -1.828062 -1.992631 28.795083 -0.350000 -0.000001 -80.902800
-2.127764 17.212677 0.398895 7.926789 -78.209463 0.053410 -9.575410 1.253628 3.305315 -11.208659 -11.187707 -12.675198 -2.029673 -0.152250 13.125576 1.120539 6.054308 -6.749463 0.114900 0.000001 -34.707699 10.790387 1.615754 -1.550390 4.887341 -7.642901 -46.289096 -1.918125 -4.408075 73.250907 -1.853753 -0.196158 32.172744 0.752300 -0.000000 -78.939200
-2.094751 17.213569 0.433846 6.199845 -77.859695 1.532125 -9.661283 1.142065 3.137982 -10.966045 -11.211492 -12.400164 -1.991595 -0.121545 13.294987 1.102190 5.935629 -6.817304 0.098000 0.000000 -34.708600 10.690647 1.927553 -1.712190 4.873150 -7.707602 -48.887585 -2.037805 -4.646444 76.508371 -1.865401 1.360344 34.758518 1.799500 -0.000000 -77.237700
-2.061214 17.216902 0.469205 4.288354 -77.546354 3.179796 -9.751377 1.024830 2.985975 -10.648267 -11.336781 -12.106963 -1.935315 -0.087377 13.483196 1.105749 5.960386 -6.897295 0.083900 0.000000 -34.649300 10.570807 2.228594 -1.894933 4.972198 -7.776432 -51.504234 -2.193183 -4.906815 79.677063 -1.871541 2.478426 36.548071 2.598799 0.000000 -76.060300
-2.027801 17.222821 0.505313 2.193918 -77.266030 5.001348 -9.845902 0.903517 2.851621 -10.257639 -11.562005 -11.797401 -1.861748 -0.050395 13.682543 1.130585 6.126282 -6.984414 0.072300 0.000000 -34.538400 10.431190 2.520758 -2.092735 5.184385 -7.836700 -54.141916 -2.396791 -5.181351 82.765550 -1.880736 3.031841 37.580409 3.015300 0.000000 -75.511399
-1.994503 17.231380 0.542695 -0.112522 -77.014911 7.021201 -9.947732 0.779441 2.731446 -9.790897 -11.864681 -11.470126 -1.772477 -0.010001 13.889614 1.173326 6.410826 -7.075834 0.062600 0.000000 -34.393200 10.270379 2.805537 -2.301344 5.509138 -7.872588 -56.790186 -2.652060 -5.460555 85.767107 -1.898598 2.986661 37.916959 2.999600 -0.000000 -75.526900
-1.961818 17.242358 0.581476 -2.596248 -76.786514 9.211706 -10.056940 0.655232 2.623963 -9.259131 -12.228202 -11.126595 -1.670589 0.033539 14.095250 1.231074 6.794422 -7.165140 0.055000 0.000000 -34.227699 10.088355 3.085544 -2.513161 5.924195 -7.868547 -59.444377 -2.956084 -5.736069 88.667592 -1.926213 2.412044 37.635872 2.598400 0.000000 -75.930600
-1.929668 17.255411 0.621828 -5.244839 -76.574330 11.557902 -10.176243 0.532747 2.522770 -8.668396 -12.618140 -10.767548 -1.559597 0.081035 14.296576 1.298445 7.240085 -7.249418 0.048900 0.000000 -34.060500 9.884338 3.362481 -2.722609 6.405683 -7.810780 -62.090629 -3.299849 -6.000138 91.440048 -1.960378 1.457694 36.837006 1.931800 -0.000000 -76.466300
-1.898040 17.269980 0.663796 -8.036084 -76.371005 14.038234 -10.309028 0.413520 2.420656 -8.025061 -12.996285 -10.397501 -1.443257 0.133432 14.494969 1.369281 7.705576 -7.328667 0.043201 0.000000 -33.909599 9.657640 3.637821 -2.924163 6.923384 -7.689417 -64.716353 -3.670148 -6.246535 94.052419 -1.994433 0.323214 35.646668 1.158301 0.000000 -76.838700
-1.866980 17.285341 0.706873 -10.882458 -76.168161 16.568530 -10.454340 0.297747 2.312847 -7.351297 -13.346402 -10.014708 -1.325704 0.190332 14.682606 1.440038 8.168144 -7.398766 0.038500 -0.000000 -33.783300 9.409380 3.914473 -3.111100 7.426794 -7.502717 -67.315674 -4.050516 -6.471668 96.469657 -2.020875 -0.785928 34.231316 0.430800 0.000000 -76.954000
-1.836449 17.300693 0.750395 -13.706750 -75.957427 19.073421 -10.611483 0.184555 2.193508 -6.666473 -13.648299 -9.620706 -1.210840 0.251456 14.860158 1.506442 8.599760 -7.460858 0.034000 -0.000000 -33.687100 9.140998 4.194277 -3.278069 7.868892 -7.257824 -69.885305 -4.424243 -6.674047 98.660772 -2.031954 -1.692701 32.764850 -0.135500 -0.000000 -76.690799
-1.806367 17.315242 0.794094 -16.479082 -75.731443 21.521937 -10.782893 0.072440 2.055196 -5.974364 -13.869365 -9.222906 -1.101581 0.317368 15.040353 1.562495 8.960312 -7.523146 0.027500 0.000000 -33.632300 8.852580 4.477008 -3.422939 8.222260 -6.967844 -72.419756 -4.775459 -6.852894 100.599146 -2.021522 -2.275263 31.407644 -0.478300 0.000000 -75.943101
-1.776739 17.328283 0.837285 -19.135530 -75.484302 23.851385 -10.966156 -0.040803 1.894853 -5.288528 -14.004760 -8.823146 -1.000232 0.387449 15.228995 1.606022 9.235825 -7.590513 0.017900 -0.000000 -33.615900 8.545934 4.762830 -3.543871 8.456950 -6.653257 -74.919533 -5.090750 -7.009621 102.266121 -1.987337 -2.474651 30.302533 -0.583200 -0.000000 -74.894900
-1.747895 17.339103 0.878549 -21.550962 -75.213433 25.941951 -11.149622 -0.157344 1.714749 -4.644648 -14.082639 -8.417255 -0.909474 0.458863 15.420982 1.639433 9.443252 -7.662134 0.005900 0.000000 -33.621400 8.227836 5.052861 -3.636835 8.529843 -6.345226 -77.398550 -5.362874 -7.149419 103.657254 -1.929839 -2.276351 29.538621 -0.459901 -0.000000 -73.698100
-1.719786 17.347313 0.917978 -23.764618 -74.919152 27.829563 -11.336211 -0.278226 1.511920 -4.028202 -14.082538 -8.016793 -0.829436 0.532650 15.637790 1.659365 9.558436 -7.751779 -0.011400 -0.000000 -33.654400 7.897869 5.343274 -3.705833 8.461257 -6.063016 -79.850293 -5.585957 -7.273328 104.773049 -1.853213 -1.722409 29.147936 -0.141500 -0.000000 -72.500000
-1.692657 17.352675 0.955251 -25.769411 -74.604348 29.509846 -11.522936 -0.404018 1.289031 -3.440898 -14.014233 -7.628637 -0.760122 0.608247 15.888753 1.666849 9.587098 -7.866035 -0.034700 -0.000000 -33.707601 7.558124 5.631133 -3.752750 8.264445 -5.826410 -82.278051 -5.758294 -7.384074 105.622654 -1.764274 -0.884875 29.116943 0.333500 0.000000 -71.483400
-1.667101 17.355124 0.989366 -27.497932 -74.274363 30.923733 -11.697613 -0.534225 1.055137 -2.908503 -13.924757 -7.253382 -0.701826 0.683000 16.169870 1.667944 9.568965 -8.003452 -0.062500 0.000000 -33.754900 7.215903 5.915292 -3.775308 7.935769 -5.657811 -84.697683 -5.884388 -7.486936 106.232706 -1.671159 0.145868 29.395954 0.923600 0.000000 -70.815200
-1.643455 17.354831 1.020481 -28.984504 -73.934718 32.110028 -11.859827 -0.667567 0.815507 -2.423716 -13.823848 -6.902696 -0.653309 0.756810 16.491160 1.664307 9.513619 -8.170070 -0.095400 0.000000 -33.790700 6.872182 6.191581 -3.775349 7.510383 -5.564132 -87.111786 -5.967709 -7.583028 106.625489 -1.582734 1.253336 29.911005 1.572901 0.000000 -70.605100
-1.621690 17.352044 1.049354 -30.307525 -73.591321 33.145616 -12.015375 -0.803040 0.572643 -1.964564 -13.705326 -6.585491 -0.612574 0.830943 16.863045 1.655915 9.420036 -8.371817 -0.133901 -0.000000 -33.820000 6.524557 6.454624 -3.758681 7.039892 -5.542242 -89.511501 -6.011086 -7.671118 106.819596 -1.506852 2.310885 30.571955 2.213800 0.000000 -70.837100
-1.602584 17.347085 1.075138 -31.398091 -73.249315 33.974508 -12.150795 -0.938230 0.338795 -1.562880 -13.626846 -6.302911 -0.579418 0.902167 17.273289 1.650326 9.339035 -8.600941 -0.176000 -0.000000 -33.815999 6.181454 6.703887 -3.718384 6.517073 -5.601135 -91.915627 -6.021331 -7.754261 106.838662 -1.450502 3.202867 31.308702 2.777100 0.000000 -71.617400
-1.585914 17.340340 1.099010 -32.350637 -72.912815 34.688591 -12.275811 -1.072048 0.114049 -1.190305 -13.569084 -6.061969 -0.551696 0.972392 17.729529 1.645845 9.259237 -8.861390 -0.222300 -0.000000 -33.792000 5.839085 6.933870 -3.660342 5.991570 -5.727517 -94.304930 -5.998408 -7.828506 106.683903 -1.418065 3.818753 32.040534 3.187099 0.000000 -72.766899
-1.572089 17.332205 1.120571 -33.120246 -72.586036 35.251929 -12.381256 -1.202329 -0.093813 -0.870869 -13.570940 -5.861500 -0.529257 1.039436 18.219111 1.647401 9.214600 -9.144201 -0.271700 -0.000000 -33.734201 5.504814 7.143993 -3.577970 5.450730 -5.924596 -96.680906 -5.942912 -7.893573 106.347872 -1.412719 4.083892 32.723195 3.386200 -0.000000 -74.288600
-1.561008 17.322997 1.140156 -33.723476 -72.272504 35.683038 -12.467601 -1.327776 -0.283463 -0.605297 -13.636843 -5.699626 -0.511410 1.103310 18.735550 1.655809 9.211382 -9.444464 -0.323700 0.000000 -33.646100 5.181848 7.332090 -3.470553 4.898540 -6.188434 -99.021438 -5.851241 -7.946182 105.805367 -1.434329 3.966100 33.313925 3.341200 -0.000001 -75.956400
-1.552530 17.312989 1.157883 -34.155719 -71.976326 35.979911 -12.532726 -1.447303 -0.454136 -0.403002 -13.774949 -5.572855 -0.498016 1.163558 19.269478 1.672280 9.258540 -9.754936 -0.378299 0.000000 -33.530299 4.875826 7.497201 -3.334921 4.321778 -6.519861 -101.298815 -5.716479 -7.982692 105.011133 -1.480338 3.486293 33.794807 3.056000 -0.000000 -77.591800
-1.545912 17.302348 1.174605 -34.473697 -71.701411 36.194521 -12.584431 -1.561113 -0.609628 -0.246356 -13.959768 -5.484839 -0.488338 1.221712 19.821025 1.693845 9.337321 -10.073640 -0.435400 0.000000 -33.397900 4.587808 7.636925 -3.173732 3.727988 -6.910469 -103.466411 -5.529825 -7.997338 103.909438 -1.544208 2.720117 34.151483 2.573000 0.000000 -78.792100
-1.540957 17.291284 1.189911 -34.638014 -71.454729 36.292050 -12.615842 -1.668365 -0.750379 -0.159999 -14.206773 -5.425647 -0.483050 1.276464 20.373471 1.722869 9.464459 -10.389014 -0.494100 -0.000000 -33.250300 4.327802 7.752522 -2.981686 3.081181 -7.367571 -105.483908 -5.282791 -7.986134 102.433481 -1.617902 1.791855 34.416916 1.973000 0.000000 -79.511600
-1.536873 17.279901 1.204596 -34.707755 -71.242597 36.328257 -12.635486 -1.769762 -0.882164 -0.124248 -14.481837 -5.398810 -0.481535 1.329365 20.926155 1.755776 9.617252 -10.699356 -0.554100 0.000000 -33.096900 4.096951 7.842223 -2.762691 2.389070 -7.879634 -107.295358 -4.968100 -7.942454 100.515846 -1.689995 0.846064 34.615945 1.350300 0.000000 -79.428600
-1.532917 17.268304 1.219003 -34.709712 -71.074156 36.327118 -12.645964 -1.865709 -1.009332 -0.135473 -14.766314 -5.402357 -0.483689 1.380783 21.471294 1.791118 9.787530 -10.998965 -0.614500 -0.000000 -32.942300 3.899224 7.906065 -2.518573 1.648202 -8.436702 -108.851785 -4.583286 -7.860502 98.098469 -1.749278 0.022492 34.795179 0.797800 -0.000000 -78.458100
-1.528560 17.256656 1.233277 -34.666348 -70.960654 36.312299 -12.648753 -1.956504 -1.136369 -0.191892 -15.040327 -5.434708 -0.489297 1.430518 21.998483 1.827937 9.970332 -11.281441 -0.673800 -0.000000 -32.793900 3.737804 7.943887 -2.249623 0.857132 -9.019306 -110.110516 -4.128291 -7.733470 95.122910 -1.788096 -0.587398 35.024773 0.376000 0.000000 -77.003800
-1.523029 17.245093 1.248031 -34.635548 -70.912187 36.337730 -12.650418 -2.042979 -1.268380 -0.275421 -15.270108 -5.498898 -0.497719 1.479200 22.503017 1.863382 10.148345 -11.545404 -0.731100 0.000000 -32.649700 3.612332 7.955091 -1.961067 0.036988 -9.599810 -111.044726 -3.614628 -7.557416 91.566895 -1.797331 -0.918496 35.303436 0.128000 -0.000000 -74.876800
-1.516125 17.233863 1.263210 -34.633636 -70.942749 36.425510 -12.650423 -2.125335 -1.409071 -0.386237 -15.436666 -5.596529 -0.508851 1.525647 22.972974 1.896855 10.318771 -11.785661 -0.784900 -0.000000 -32.512000 3.525163 7.939740 -1.649987 -0.811412 -10.143698 -111.640011 -3.052975 -7.327086 87.401054 -1.777424 -0.996349 35.681068 0.038500 0.000001 -72.994600
